<svg width="24" height="20" viewBox="0 0 24 20" fill="none" xmlns="http://www.w3.org/2000/svg">
<path d="M21.5156 5.125C22.4531 4.42188 23.2969 3.57812 24 2.54688C23.0625 2.96875 22.125 3.25 21.1875 3.34375C22.2188 2.6875 22.9688 1.79688 23.3438 0.625C22.3594 1.1875 21.3281 1.60938 20.2031 1.79688C19.7344 1.32812 19.1719 0.953125 18.5625 0.671875C17.9531 0.390625 17.2969 0.25 16.5938 0.25C15.7031 0.25 14.9062 0.484375 14.1562 0.90625C13.4062 1.375 12.7969 1.98438 12.375 2.73438C11.9062 3.48438 11.7188 4.32812 11.7188 5.17188C11.7188 5.54688 11.7188 5.92188 11.8125 6.29688C9.79688 6.20312 7.92188 5.73438 6.14062 4.79688C4.35938 3.90625 2.90625 2.6875 1.6875 1.14062C1.21875 1.9375 0.984375 2.78125 0.984375 3.625C0.984375 4.46875 1.17188 5.26562 1.59375 5.96875C1.96875 6.71875 2.53125 7.28125 3.1875 7.75C2.39062 7.75 1.64062 7.51562 0.984375 7.09375V7.1875C0.984375 8.35938 1.35938 9.39062 2.10938 10.2812C2.85938 11.2188 3.79688 11.7812 4.92188 12.0156C4.45312 12.1094 4.03125 12.1562 3.60938 12.1562C3.32812 12.1562 3 12.1562 2.71875 12.1094C3 13.0938 3.5625 13.8906 4.40625 14.5469C5.25 15.2031 6.1875 15.4844 7.3125 15.4844C5.48438 16.8906 3.42188 17.5938 1.17188 17.5938C0.703125 17.5938 0.328125 17.5938 0 17.5469C2.25 19.0469 4.78125 19.75 7.54688 19.75C10.4062 19.75 12.9375 19.0469 15.1875 17.5469C17.2031 16.2344 18.7969 14.5 19.9219 12.25C21 10.1875 21.5625 7.98438 21.5625 5.73438C21.5625 5.45312 21.5156 5.26562 21.5156 5.125Z" fill="white"/>
</svg>
